<?xml version="1.0" encoding="UTF-8"?>
<svg id="Layer_1" data-name="Layer 1" xmlns="http://www.w3.org/2000/svg" viewBox="0 0 500 200">
  <defs>
    <style>
      .cls-1 {
        fill: #c81e56;
      }

      .cls-2 {
        fill: #f1f1f1;
      }
    </style>
  </defs>
  <path class="cls-2" d="M106.81,95.98v31.7h-56.56c-.58-8.12-.15-14.83,1.3-20.14,1.45-5.3,3.6-9.53,6.46-12.68,2.86-3.15,6.11-5.49,9.76-7.02,3.64-1.53,7.42-2.55,11.31-3.04,3.89-.5,7.58-.75,11.06-.75-1.83-2.9-4.19-5.08-7.09-6.53-2.9-1.45-5.95-2.18-9.14-2.67-3.19-.5-6.15-.79-8.89-.87h-11.56v-12.8h12.18c4.89.08,9.76.37,14.61,1.37,4.85.99,9.26,2.76,13.24,5.28,3.98,2.53,7.19,6.07,9.63,10.63,2.44,4.56,3.67,10.4,3.67,17.53ZM63.92,115h29.21v-18.77c-10.36.08-17.82,1.45-22.38,4.1-4.56,2.65-6.84,7.54-6.84,14.67Z"/>
  <path class="cls-2" d="M148.04,127.61c-2.73,0-5.65-.54-8.76-1.61-3.11-1.08-6.05-2.92-8.83-5.53-2.78-2.61-5.06-6.17-6.84-10.69-1.78-4.52-2.67-10.17-2.67-16.97V28.04h13.92v64.77c0,4.89.48,8.72,1.43,11.5.95,2.78,2.15,4.85,3.6,6.22,1.45,1.37,2.9,2.26,4.35,2.67,1.45.42,2.71.7,3.79.87v13.55Z"/>
  <path class="cls-2" d="M212.51,128.01h-9.2c-4.81-.08-9.66-.62-14.54-1.62-4.89-.99-9.32-2.75-13.3-5.28-3.98-2.53-7.19-6.07-9.63-10.63-2.45-4.56-3.67-10.4-3.67-17.53v-31.7h50.22v12.68h-36.55v18.9c0,4.97.93,8.93,2.8,11.87,1.86,2.94,4.25,5.14,7.15,6.59,2.9,1.45,5.97,2.45,9.2,2.98,3.23.54,6.22.85,8.95.93h8.58v12.8Z"/>
  <path class="cls-2" d="M253.11,128.67c-4.31,0-8.35-.89-12.12-2.67-3.77-1.78-7.05-4.21-9.82-7.27-2.78-3.07-4.95-6.55-6.53-10.44-1.58-3.9-2.36-8-2.36-12.31v-4.72c0-5.72,1.37-10.92,4.1-15.6,2.73-4.68,6.42-8.41,11.06-11.19,4.64-2.78,9.86-4.16,15.66-4.16s11.02,1.39,15.66,4.16c4.64,2.78,8.33,6.51,11.06,11.19,2.73,4.68,4.1,9.88,4.1,15.6v4.72c0,4.31-.79,8.41-2.36,12.31-1.58,3.9-3.75,7.38-6.53,10.44-2.78,3.07-6.03,5.49-9.76,7.27-3.73,1.78-7.79,2.67-12.18,2.67ZM253.11,115.99c3.4,0,6.32-.95,8.76-2.86,2.44-1.91,4.35-4.37,5.72-7.4,1.37-3.02,2.05-6.28,2.05-9.76v-4.72c0-5.47-1.49-9.88-4.47-13.24-2.98-3.36-7-5.03-12.06-5.03s-9.07,1.68-12.06,5.03c-2.98,3.36-4.47,7.77-4.47,13.24v4.72c0,3.48.68,6.73,2.05,9.76,1.37,3.03,3.29,5.49,5.78,7.4,2.48,1.91,5.39,2.86,8.7,2.86Z"/>
  <path class="cls-1" d="M309.2,63.66,309.22,61.29h-12.18v12.8h11.56c2.73.08,5.7,0,8.89.5,3.19.5,6.24,1.47,9.14,2.92,2.9,1.45,5.26,3.63,7.09,6.53-3.48,0-7.17.25-11.06.75-3.9.5-7.67,1.51-11.31,3.04-3.65,1.54-6.9,3.88-9.76,7.02-2.86,3.15-5.01,7.38-6.46,12.68-1.45,5.3-1.89,12.02-1.3,20.14h56.56v-31.7c0-7.13-1.22-12.97-3.67-17.53-2.45-4.56-5.66-8.1-9.63-10.63-3.98-2.53-8.39-4.29-13.24-5.28-4.85-.99-9.72-1.16-14.61-1.24h0ZM307.48,115c0-7.13,2.28-12.02,6.84-14.67,4.56-2.65,12.02-4.02,22.38-4.1v18.77h-29.21Z"/>
  <path class="cls-1" d="M403.08,61.29c-4.89.33-9.8,1.06-14.73,2.18-4.93,1.12-9.43,2.94-13.49,5.47-4.06,2.53-7.32,6.07-9.76,10.63-2.45,4.56-3.67,10.44-3.67,17.65v30.46h13.67v-30.33c0-5.05.81-9.07,2.42-12.06,1.61-2.98,3.77-5.22,6.46-6.71,2.69-1.49,5.7-2.55,9.01-3.17,3.31-.62,6.67-1.06,10.07-1.3v-12.8h0Z"/>
  <path class="cls-1" d="M436.57,39.11h-13.67v22.14h-12.3v12.8h12.3v18.9c0,6.8.89,12.45,2.67,16.97,1.78,4.52,4.06,8.08,6.84,10.69,2.77,2.61,5.72,4.46,8.82,5.53,3.11,1.08,6.03,1.61,8.76,1.61v-13.55c-1.08-.17-2.36-.45-3.85-.87-1.49-.41-2.94-1.3-4.35-2.67-1.41-1.37-2.61-3.44-3.6-6.22-.99-2.78-1.53-6.61-1.62-11.5v-18.9h13.43v-12.8h-13.43v-22.14h0Z"/>
  <g>
    <polygon class="cls-2" points="189.88 166.98 182.97 146.48 179.68 146.48 172.64 166.88 165.85 146.48 162.16 146.48 170.54 171.56 174.38 171.56 181.23 151.52 188.06 171.56 191.82 171.56 200.2 146.48 196.8 146.48 189.88 166.98"/>
    <path class="cls-2" d="M205.82,144.44c-.67,0-1.23.22-1.67.65-.44.43-.66.97-.66,1.61s.22,1.15.66,1.58c.44.43,1,.65,1.67.65s1.25-.22,1.68-.66c.43-.44.65-.99.65-1.63s-.22-1.14-.66-1.56c-.44-.42-1-.63-1.67-.63Z"/>
    <rect class="cls-2" x="204.1" y="152.57" width="3.44" height="18.99"/>
    <path class="cls-2" d="M228.33,153.29c-1.18-.6-2.55-.9-4.1-.9-1.72,0-3.22.35-4.51,1.04-.96.52-1.74,1.19-2.33,2.01v-2.87h-3.29v18.99h3.44v-9.78c0-1.39.24-2.54.73-3.48.49-.93,1.19-1.64,2.1-2.11.91-.48,1.97-.72,3.19-.72,1.62,0,2.88.47,3.78,1.4.9.93,1.34,2.32,1.34,4.16v10.53h3.44v-10.93c0-1.86-.33-3.4-1-4.62-.67-1.22-1.59-2.13-2.77-2.72Z"/>
    <path class="cls-2" d="M251.13,153.61c-1.41-.81-3.03-1.22-4.87-1.22s-3.44.41-4.89,1.24c-1.45.82-2.58,1.97-3.4,3.42-.82,1.46-1.23,3.13-1.23,5.02s.42,3.56,1.27,5.02c.85,1.46,2.04,2.6,3.58,3.44,1.54.84,3.32,1.25,5.35,1.25,1.57,0,3-.26,4.28-.79,1.28-.53,2.34-1.29,3.21-2.29l-1.9-2.22c-.69.77-1.5,1.34-2.42,1.72-.92.38-1.94.57-3.06.57-1.36,0-2.57-.27-3.62-.82-1.05-.55-1.87-1.32-2.45-2.31-.43-.73-.7-1.54-.81-2.42h15.41c.02-.17.04-.35.05-.54.01-.19.02-.36.02-.5,0-1.96-.4-3.67-1.2-5.14-.8-1.47-1.91-2.61-3.31-3.42ZM243.07,156.1c.93-.54,1.99-.81,3.19-.81s2.29.27,3.21.81c.92.54,1.64,1.28,2.17,2.24.4.72.64,1.53.72,2.4h-12.2c.1-.87.34-1.66.73-2.38.52-.97,1.26-1.72,2.19-2.26Z"/>
    <path class="cls-2" d="M289.63,160.56l-2.76-.9c-.35,1.76-.88,3.25-1.56,4.52l-6.18-6.15c.94-.53,1.75-1.04,2.4-1.53,1.03-.76,1.77-1.55,2.24-2.37.46-.81.7-1.7.7-2.65,0-1.1-.26-2.04-.77-2.81-.51-.77-1.23-1.37-2.17-1.79-.93-.42-2.03-.63-3.29-.63-1.36,0-2.55.23-3.56.7-1.01.47-1.8,1.12-2.36,1.97-.56.85-.84,1.83-.84,2.96,0,.65.11,1.28.32,1.9.21.62.56,1.26,1.04,1.92.41.57.96,1.2,1.64,1.9-1.15.66-2.13,1.31-2.93,1.94-1.1.87-1.9,1.77-2.4,2.71-.5.93-.75,1.96-.75,3.08,0,1.29.38,2.43,1.15,3.4.76.98,1.8,1.74,3.11,2.29,1.31.55,2.82.83,4.51.83,2.12,0,4.03-.44,5.73-1.33.96-.5,1.83-1.15,2.62-1.91l3.36,3.34,1.93-2.29-3.39-3.37c1.02-1.6,1.77-3.5,2.21-5.73ZM275.61,149.62c.63-.56,1.51-.84,2.63-.84s1.9.26,2.47.77c.57.51.86,1.18.86,1.99,0,.6-.18,1.15-.52,1.67s-.93,1.06-1.75,1.63c-.55.38-1.26.81-2.09,1.28-.61-.62-1.1-1.16-1.45-1.59-.42-.51-.7-.98-.86-1.4-.16-.42-.23-.85-.23-1.31,0-.91.32-1.64.95-2.2ZM281.71,167.95c-1.29.69-2.73,1.04-4.33,1.04-1.12,0-2.11-.17-2.96-.5-.85-.34-1.5-.81-1.97-1.42-.47-.61-.7-1.31-.7-2.1,0-.74.17-1.42.52-2.04.35-.62.93-1.25,1.74-1.88.61-.48,1.4-.99,2.37-1.52l7.13,7.1c-.55.53-1.15.97-1.8,1.32Z"/>
    <polygon class="cls-2" points="321.86 146.48 301.12 146.48 301.12 149.6 309.72 149.6 309.72 171.56 313.26 171.56 313.26 149.6 321.86 149.6 321.86 146.48"/>
    <path class="cls-2" d="M336.49,153.63c-1.49-.82-3.18-1.24-5.07-1.24s-3.6.42-5.08,1.25c-1.48.84-2.65,1.98-3.51,3.42-.86,1.45-1.29,3.11-1.29,5s.43,3.53,1.29,5c.86,1.47,2.04,2.62,3.53,3.46,1.49.84,3.18,1.25,5.07,1.25s3.58-.42,5.07-1.25c1.49-.84,2.66-1.98,3.51-3.44.85-1.46,1.27-3.13,1.27-5.02s-.42-3.56-1.27-5.02c-.85-1.46-2.02-2.6-3.51-3.42ZM336.97,165.6c-.55,1.02-1.31,1.8-2.27,2.35-.97.55-2.06.82-3.28.82s-2.3-.27-3.26-.82c-.96-.55-1.72-1.33-2.29-2.35-.57-1.01-.86-2.19-.86-3.53s.29-2.54.86-3.53c.57-.99,1.34-1.76,2.29-2.31.95-.55,2.04-.82,3.26-.82s2.31.27,3.28.82c.97.55,1.72,1.32,2.27,2.31.55.99.82,2.17.82,3.53s-.28,2.52-.82,3.53Z"/>
    <path class="cls-2" d="M361.04,153.61c-1.43-.81-3.08-1.22-4.94-1.22-1.57,0-3.01.36-4.31,1.07-.9.49-1.66,1.17-2.31,2.01v-10.5h-3.44v26.59h3.29v-3.01c.65.89,1.44,1.61,2.38,2.13,1.3.73,2.76,1.09,4.39,1.09,1.86,0,3.51-.41,4.94-1.22,1.43-.81,2.57-1.95,3.4-3.4.84-1.46,1.25-3.15,1.25-5.09s-.42-3.62-1.25-5.07c-.84-1.44-1.97-2.57-3.4-3.39ZM361.38,165.6c-.56,1.02-1.33,1.8-2.29,2.35-.97.55-2.06.82-3.28.82s-2.27-.27-3.24-.82c-.97-.55-1.73-1.33-2.29-2.35-.56-1.01-.84-2.19-.84-3.53s.28-2.54.84-3.53c.56-.99,1.32-1.76,2.29-2.31.97-.55,2.05-.82,3.24-.82s2.31.27,3.28.82c.97.55,1.73,1.32,2.29,2.31.56.99.84,2.17.84,3.53s-.28,2.52-.84,3.53Z"/>
    <path class="cls-2" d="M377.19,152.39c-1.5,0-2.94.21-4.32.63-1.37.42-2.55,1.02-3.53,1.81l1.43,2.58c.74-.62,1.65-1.12,2.72-1.49,1.08-.37,2.17-.56,3.3-.56,1.69,0,2.97.4,3.81,1.2.85.8,1.27,1.93,1.27,3.39v.68h-5.44c-1.89,0-3.38.25-4.49.75-1.11.5-1.91,1.17-2.4,2.01-.49.84-.73,1.77-.73,2.8s.28,2.04.86,2.88c.57.85,1.39,1.51,2.45,1.99,1.06.48,2.3.72,3.71.72,1.74,0,3.19-.33,4.33-.99.81-.46,1.43-1.05,1.9-1.74v2.51h3.26v-11.47c0-2.6-.7-4.54-2.11-5.81-1.41-1.27-3.41-1.9-6.01-1.9ZM379.79,168.27c-.97.57-2.09.86-3.38.86s-2.34-.28-3.08-.84c-.74-.56-1.11-1.31-1.11-2.24,0-.81.3-1.5.9-2.08.59-.57,1.75-.86,3.47-.86h5.3v2.65c-.43,1.1-1.13,1.94-2.09,2.51Z"/>
    <path class="cls-2" d="M396.6,156.23c.98-.55,2.09-.82,3.33-.82,1.02,0,1.99.22,2.88.66s1.65,1.13,2.27,2.06l2.62-1.68c-.74-1.34-1.79-2.35-3.14-3.03-1.35-.68-2.88-1.02-4.6-1.02-1.93,0-3.66.41-5.17,1.24-1.52.82-2.7,1.97-3.56,3.42-.86,1.46-1.29,3.13-1.29,5.02s.43,3.56,1.29,5.02c.86,1.46,2.05,2.6,3.56,3.44,1.51.84,3.24,1.25,5.17,1.25,1.72,0,3.25-.35,4.6-1.06,1.35-.7,2.39-1.71,3.14-3.03l-2.62-1.65c-.62.93-1.38,1.62-2.27,2.06-.9.44-1.86.66-2.88.66-1.24,0-2.35-.27-3.33-.82-.98-.55-1.75-1.33-2.33-2.33-.57-1-.86-2.19-.86-3.55s.29-2.54.86-3.53c.57-.99,1.35-1.76,2.33-2.31Z"/>
    <path class="cls-2" d="M416.76,156.23c.98-.55,2.09-.82,3.33-.82,1.02,0,1.99.22,2.88.66s1.65,1.13,2.28,2.06l2.62-1.68c-.74-1.34-1.79-2.35-3.14-3.03-1.35-.68-2.88-1.02-4.6-1.02-1.93,0-3.66.41-5.17,1.24-1.52.82-2.7,1.97-3.56,3.42-.86,1.46-1.29,3.13-1.29,5.02s.43,3.56,1.29,5.02c.86,1.46,2.05,2.6,3.56,3.44,1.51.84,3.24,1.25,5.17,1.25,1.72,0,3.25-.35,4.6-1.06,1.35-.7,2.39-1.71,3.14-3.03l-2.62-1.65c-.62.93-1.38,1.62-2.28,2.06-.9.44-1.86.66-2.88.66-1.24,0-2.35-.27-3.33-.82-.98-.55-1.75-1.33-2.33-2.33-.57-1-.86-2.19-.86-3.55s.29-2.54.86-3.53c.57-.99,1.35-1.76,2.33-2.31Z"/>
    <path class="cls-2" d="M448.73,157.05c-.85-1.46-2.02-2.6-3.51-3.42-1.49-.82-3.18-1.24-5.07-1.24s-3.6.42-5.08,1.25c-1.48.84-2.65,1.98-3.51,3.42-.86,1.45-1.29,3.11-1.29,5s.43,3.53,1.29,5c.86,1.47,2.04,2.62,3.53,3.46,1.49.84,3.18,1.25,5.07,1.25s3.58-.42,5.07-1.25c1.49-.84,2.66-1.98,3.51-3.44.85-1.46,1.27-3.13,1.27-5.02s-.42-3.56-1.27-5.02ZM445.7,165.6c-.55,1.02-1.31,1.8-2.27,2.35-.97.55-2.06.82-3.28.82s-2.3-.27-3.26-.82c-.96-.55-1.72-1.33-2.29-2.35-.57-1.01-.86-2.19-.86-3.53s.29-2.54.86-3.53c.57-.99,1.34-1.76,2.29-2.31.95-.55,2.04-.82,3.26-.82s2.31.27,3.28.82c.97.55,1.72,1.32,2.27,2.31.55.99.82,2.17.82,3.53s-.27,2.52-.82,3.53Z"/>
  </g>
</svg>