<?xml version="1.0" encoding="UTF-8"?>
<!DOCTYPE svg PUBLIC "-//W3C//DTD SVG 1.1//EN" "http://www.w3.org/Graphics/SVG/1.1/DTD/svg11.dtd">
<!-- Creator: CorelDRAW 2018 (64-Bit) -->
<svg xmlns="http://www.w3.org/2000/svg" xml:space="preserve" width="0.966665in" height="0.313724in" version="1.1" style="shape-rendering:geometricPrecision; text-rendering:geometricPrecision; image-rendering:optimizeQuality; fill-rule:evenodd; clip-rule:evenodd"
viewBox="0 0 957.49 310.75"
 xmlns:xlink="http://www.w3.org/1999/xlink">
 <defs>
  <style type="text/css">
   <![CDATA[
    .fil1 {fill:#FFF}
    .fil0 {fill:#ED711B}
   ]]>
  </style>
 </defs>
 <g id="Слой_x0020_1">
  <metadata id="CorelCorpID_0Corel-Layer"/>
  <g id="_2285535199744">
   <path class="fil0" d="M556.84 21.45c-2.57,6.52 -4.57,20.98 -6.52,28.91 -2.41,9.78 -5.54,18.92 -7.71,28.1l-13.55 0.34c0.92,3.33 6.93,7.73 9.55,10.14 -2.06,10.11 -23.17,56.42 -29.9,64.22 -6.48,7.5 -10.19,7.39 -19.52,12.05l53.68 0.09c-16.55,-9.59 -12.97,-6.34 -1.62,-31.95l15.43 -36.83 37.88 0.07c5.79,12.35 9.79,24.81 15.79,36.66 13.05,25.76 13.89,23.87 -2.52,31.96l54.68 0.09c-16.05,-8.45 -17.78,-3.47 -29.38,-27.16 -6.4,-13.06 -11.52,-26.23 -16.17,-41.24 -9.19,-29.68 -16.31,-63.45 -16.99,-96.9 -2.52,2.67 -4.18,6.15 -7.05,8.94 -9.15,8.85 -22.34,12.82 -36.08,12.51zm7.81 57.18l24.9 0.11 -11.82 -41.52 -13.08 41.41z"/>
   <path class="fil0" d="M197.92 64.81l-9.5 39.79 0 0.27 -6.41 0 -3.12 0.13 6.43 7.04c-2.75,10.87 -15.79,42.79 -26.33,49.38l-7.37 3.99 36.04 -0.11c-9.05,-6.28 -8.89,-2.94 -0.3,-22.04 3.87,-8.63 6.95,-16.93 10.87,-25.68l26.24 -0.16c3.27,6.8 6.02,14.16 8.97,20.86 2.63,5.97 9.2,16.12 8.58,22.41 -3.51,2.4 -3.35,2.69 -7.73,4.33 11.41,1.41 25.63,1.13 37.14,0.08 -12.56,-3.98 -14.37,-8.53 -19.73,-19.23 -4.48,-8.95 -8.14,-18.03 -11.2,-28.43 -6.88,-23.43 -10.3,-41.36 -12.21,-67.04 -4.56,3.65 -5.3,7.21 -11.75,10.31 -6.47,3.11 -11.01,3.47 -18.64,4.08zm13.73 11.15l-9.3 28.17 18.06 0 -8.75 -28.17z"/>
   <path class="fil0" d="M680.86 54.54l-0.07 15.76 -0.09 0 0 7.56 0 11.21 -0.05 11.09 0 4.72 0.05 0 0 0 -12.56 0.14c1.73,3.68 6.76,7.59 9.84,10.65 1.45,1.44 2.27,3.1 2.71,4.95l0 26.97 0.01 0c0,7.36 -4.28,13.75 -10.58,17 -0.27,0.09 -0.54,0.17 -0.82,0.25l0.31 0c-0.34,0.16 -0.68,0.31 -1.02,0.46l18.65 0 6.56 0 18.65 0c-7.12,-2.96 -12.1,-9.77 -12.1,-17.71l0 -9.19 22.41 -5.35c16.75,42.4 49.17,85.08 88.02,101.45 36.82,15.52 82.76,14.88 120.55,0.26 5.21,-2.02 11.31,-4.93 16.39,-7.39 4.02,-1.96 10.26,-6.5 9.71,-11.45 -0,-0.02 0.45,-1.94 -1.4,-3.25 -5.21,-1.94 -7.27,6.73 -10.41,10.62 -8.12,10.03 -37.81,16.69 -50.67,18.36 -36,4.68 -75.18,-13.74 -100.21,-35.67 -4.94,-4.32 -6.73,-5.88 -11.67,-11.08l-11.43 -12.3c-9.51,-10.52 -30.27,-40.52 -34.86,-57.61 9.27,-6.65 17.42,-11.88 22.33,-23 9.53,-21.58 -6.36,-48.2 -36.5,-50.4 -16.73,-1.22 -27.54,7.48 -41.77,2.96zm19.51 61.52l0 -43.61c15.2,-3.15 47.46,-3.15 38.88,18.54 -4.87,12.31 -20.77,24.79 -38.88,25.07z"/>
   <path class="fil0" d="M289.55 56.39l-0.01 13.91 0 0.14 -0.02 34.4 0 0.04 -2.58 0 0.04 0.03 -9.99 0.11c1.73,3.68 6.76,7.59 9.84,10.65 1.46,1.44 2.28,3.1 2.72,4.95l0 26.97 0.02 0c0,7.36 -4.28,13.75 -10.58,17 -0.27,0.09 -0.54,0.17 -0.82,0.25l0.31 0c-0.33,0.16 -0.67,0.31 -1.02,0.46l18.65 0 2.32 0 21.5 0.23c-0.17,-0.08 -0.34,-0.15 -0.5,-0.23l1.88 0c-7.12,-2.96 -12.1,-9.77 -12.1,-17.71l0 -8.9 0 -0.19c23.95,-7.58 63.79,-24.03 58.87,-54.02 -2.4,-14.62 -14.04,-25.25 -27.86,-29.23 -22.04,-6.34 -29.31,5.09 -50.66,1.15zm19.65 68.09l0 -35.95 0.13 -14.17c4.92,-2.38 45.33,-9.41 38.44,22.58 -3,13.91 -21.31,24.75 -38.58,27.54z"/>
   <path class="fil0" d="M42.72 78.74l-18.92 0.01c1.83,4.72 24.91,16.27 28.07,22.7l23.52 63.47c13.01,-4.88 42.21,-41.23 51.09,-56.81 6.26,-10.97 11.89,-23.53 15.46,-37.93 3.85,-15.48 11.95,-25.28 4.68,-43.92 -6.71,-17.21 -26.52,-15.27 -15.2,7.37 7.99,15.97 12.69,20.44 6.2,40.15 -6.98,21.22 -24.77,53.89 -39.97,66.71 -2.71,-3.26 -33.21,-86.56 -39.07,-102.23 -6.29,-16.82 -11.25,-22.13 3.61,-33.11l-62.19 -0.21c18.13,7.11 20.25,11.93 27,30.23 3.94,10.67 14.07,33.76 15.72,43.57z"/>
   <path class="fil0" d="M833.34 104.88l-12.56 0.14c1.73,3.68 6.75,7.59 9.84,10.65 1.45,1.44 2.27,3.1 2.71,4.95l0 26.97 0.01 0c0,7.36 -4.28,13.75 -10.58,17 -0.27,0.09 -0.54,0.17 -0.82,0.25l0.31 0c-0.34,0.16 -0.67,0.31 -1.02,0.46l18.66 0 6.55 0 18.65 0c-7.12,-2.96 -12.1,-9.77 -12.1,-17.71l0 -77.29 36.66 0c1.97,0.23 2.84,1.26 3.12,2.69 0.02,0.09 0.03,0.18 0.05,0.26 0.37,2.57 -0.91,6.27 -1.2,8.96 1.51,-1.01 2.9,-2.28 4.11,-3.79 1.78,-2.22 2.96,-4.71 3.55,-7.25 1.47,-5.51 0.31,-11.56 -5.54,-15.7 -0.12,-0.08 -0.26,-0.16 -0.43,-0.23 -2.24,-1.41 -4.8,-2.09 -7.41,-2.09l0 -0 -57.75 0 -21.85 0 -1.54 0c-3.43,-0.46 -5.99,-1.22 -7.94,-2.17 -1.86,-1.1 -3.55,-2.58 -5.03,-4.36 -1.86,-2.84 -2.51,-6.08 -4.67,-8.87 -0.03,-0.1 -0.06,-0.2 -0.09,-0.31l-0.04 0.14 -0.01 -0.02c-0.02,0.11 -0.05,0.22 -0.08,0.32 -0.71,2.41 -1.1,4.99 -1.1,7.67 0,0.12 0,0.24 0,0.36 -0.19,9.72 4.27,16.21 10.69,20.82 1.52,1.1 3.41,1.88 5.55,2.44 1.11,0.33 2.26,0.56 3.43,0.69 0.28,0.04 0.56,0.08 0.84,0.11l27.02 0 0 0.33 0 7.56 0 27.02z"/>
   <path class="fil0" d="M383.26 58.2l-0.09 47.1 -13.37 0.15c2.19,5.13 6.85,8.28 10.38,11.74 4.66,4.57 3.05,8.98 3.05,17.52 -0.01,16.93 3.37,24.74 -10.53,30.39 16.64,2.49 65.74,2.29 67.97,-14.26 -13.52,8.3 -17.43,9.26 -38.91,3.13l-0.39 -34.06c12.5,-6.17 30.57,-6.63 45.65,-3.56 -3.22,-10.3 -5.28,-13.14 -6.75,-25.75 -3.19,1.93 -3.87,6.51 -15.46,10.3 -6.45,2.11 -16.14,4.21 -23.29,3.92l-0.14 -34.46c4.11,-3.03 10.24,-6.89 17.67,-7 10.9,-0.17 10.95,5.56 11.39,14.41 0.7,-3.6 10.69,-21.05 -11.41,-23.19 -14.61,-1.42 -24.09,6.35 -35.77,3.63z"/>
  </g>
  <g id="_2285535208672">
   <path class="fil1" d="M239.74 284.12l-7.71 -8.35c-3.12,3.21 -7.07,4.86 -11.94,4.86 -5.97,0 -11.47,-3.76 -12.3,-9.18l35.99 0 0 -7.34c0,-7.16 -2.39,-12.76 -7.16,-16.89 -4.68,-4.13 -10.47,-6.15 -17.26,-6.15 -6.79,0 -12.67,2.29 -17.72,6.88 -4.96,4.59 -7.44,10.74 -7.44,18.54 0,7.8 2.48,13.95 7.35,18.63 4.86,4.59 11.1,6.89 18.54,6.89 7.53,0 14.05,-2.66 19.64,-7.89zm-31.58 -22.49c0.37,-2.84 1.65,-5.05 3.95,-6.7 2.3,-1.65 4.77,-2.48 7.44,-2.48 5.51,0 9.64,3.3 10.28,9.18l-21.67 0z"/>
   <path class="fil1" d="M415.45 282.93c0,5.41 -1.47,9.46 -4.41,11.93 -2.94,2.48 -6.98,3.76 -12.02,3.76 -5.05,0 -9.82,-1.74 -14.32,-5.14l-5.32 10.37c5.78,4.4 13.95,6.89 21.3,6.89 6.88,0 12.94,-2.02 17.99,-6.06 5.14,-3.95 8.44,-11.02 8.44,-19.83l0 -43.05 -13.77 0 0 6.52c-3.86,-4.87 -8.72,-7.25 -14.6,-7.25 -5.87,0 -11.11,2.38 -15.7,7.07 -4.5,4.68 -6.79,10.65 -6.79,17.99 0,7.25 2.2,13.13 6.61,17.53 4.5,4.32 9.91,6.52 16.34,6.52 6.52,0 11.94,-2.39 16.25,-7.25zm-1.93 -17.35c0,7.8 -4.96,13.04 -11.57,13.04 -6.61,0 -11.84,-5.33 -11.84,-13.13 0,-3.95 1.19,-6.98 3.49,-9.27 2.38,-2.29 5.23,-3.39 8.44,-3.39 6.52,0 11.48,4.77 11.48,12.76z"/>
   <path class="fil1" d="M482.09 291.28l0 -31.49c0,-6.52 -1.93,-11.2 -5.69,-14.23 -3.76,-3.03 -8.72,-4.5 -14.69,-4.5 -8.35,0 -15.7,2.38 -22.21,7.07l6.15 8.91c3.67,-2.85 9.55,-4.96 14.32,-4.96 5.6,0 8.35,2.66 8.35,7.89l0 0.28 -10.28 0c-12.76,0 -20.57,4.96 -20.57,15.15 0,5.05 1.74,9.09 5.33,12.12 3.58,3.03 7.89,4.5 13.13,4.5 5.23,0 9.64,-2.2 13.22,-6.7l0 5.97 12.94 0zm-13.86 -18.82c0,5.05 -4.41,8.26 -9.27,8.26 -4.87,0 -7.62,-1.93 -7.62,-5.51 0,-3.4 2.75,-5.14 8.26,-5.14l8.63 0 0 2.39z"/>
   <path class="fil1" d="M575.18 284.12l-7.71 -8.35c-3.12,3.21 -7.07,4.86 -11.93,4.86 -5.97,0 -11.47,-3.76 -12.3,-9.18l35.99 0 0 -7.34c0,-7.16 -2.39,-12.76 -7.16,-16.89 -4.68,-4.13 -10.47,-6.15 -17.26,-6.15 -6.79,0 -12.67,2.29 -17.72,6.88 -4.96,4.59 -7.43,10.74 -7.43,18.54 0,7.8 2.48,13.95 7.34,18.63 4.87,4.59 11.11,6.89 18.54,6.89 7.53,0 14.05,-2.66 19.65,-7.89zm-31.58 -22.49c0.37,-2.84 1.65,-5.05 3.95,-6.7 2.3,-1.65 4.77,-2.48 7.44,-2.48 5.51,0 9.64,3.3 10.28,9.18l-21.67 0z"/>
   <path class="fil1" d="M712.14 284.12l-7.71 -8.35c-3.12,3.21 -7.06,4.86 -11.93,4.86 -5.97,0 -11.48,-3.76 -12.3,-9.18l35.99 0 0 -7.34c0,-7.16 -2.39,-12.76 -7.16,-16.89 -4.68,-4.13 -10.47,-6.15 -17.26,-6.15 -6.79,0 -12.67,2.29 -17.72,6.88 -4.96,4.59 -7.44,10.74 -7.44,18.54 0,7.8 2.48,13.95 7.34,18.63 4.87,4.59 11.11,6.89 18.55,6.89 7.52,0 14.04,-2.66 19.64,-7.89zm-31.58 -22.49c0.37,-2.84 1.65,-5.05 3.95,-6.7 2.3,-1.65 4.78,-2.48 7.44,-2.48 5.51,0 9.64,3.3 10.28,9.18l-21.66 0z"/>
   <polygon class="fil1" points="253.33,269.8 286.01,269.8 286.01,257.59 253.33,257.59 "/>
   <path class="fil1" d="M322.36 279.81c-3.49,0 -6.52,-1.19 -9.18,-3.49 -2.57,-2.29 -3.86,-5.6 -3.86,-9.73 0,-4.23 1.29,-7.53 3.86,-9.82 2.66,-2.39 5.78,-3.58 9.36,-3.58 4.5,0 9.45,2.2 12.67,5.97l7.16 -9.36c-5.51,-5.78 -13.31,-8.72 -20.38,-8.72 -7.07,0 -13.22,2.38 -18.45,7.16 -5.14,4.68 -7.71,10.83 -7.71,18.45 0,7.53 2.57,13.68 7.62,18.36 5.14,4.68 11.38,6.98 18.82,6.98 7.43,0 14.32,-3.3 20.65,-9.91l-8.17 -9.18c-3.67,4.59 -7.8,6.89 -12.39,6.89z"/>
   <path class="fil1" d="M353.21 235.66c3.21,3.01 8.44,3.01 11.48,0 3.21,-3.22 3.21,-8.45 0,-11.48 -3.03,-3.21 -8.26,-3.21 -11.48,0 -3.03,3.03 -3.03,8.26 0,11.48z"/>
   <polygon class="fil1" points="365.88,291.28 365.88,241.8 352.11,241.8 352.11,291.28 "/>
   <path class="fil1" d="M520.65 254.01l2.66 0 -0.09 -12.94c-5.51,0.09 -11.2,3.3 -14.78,7.34l0 -6.61 -13.77 0 0 49.48 13.77 0 0 -21.45c0,-9.48 4.04,-15.82 12.21,-15.82z"/>
   <path class="fil1" d="M605.01 251.72l11.94 0 0 -9.91 -11.94 0 0 -14.69 -13.86 0 0 14.69 -5.78 0 0 9.91 5.78 0 0 22.84c-0.55,15.99 18.08,23.52 30.48,11.58l-5.14 -9.64c-1.74,2.29 -3.95,3.49 -6.52,3.49 -2.66,0 -4.96,-2.29 -4.96,-6.07l0 -22.2z"/>
   <path class="fil1" d="M645.4 251.72l11.93 0 0 -9.91 -11.93 0 0 -14.69 -13.86 0 0 14.69 -5.78 0 0 9.91 5.78 0 0 22.84c-0.55,15.99 18.09,23.52 30.48,11.58l-5.14 -9.64c-1.75,2.29 -3.95,3.49 -6.52,3.49 -2.66,0 -4.96,-2.29 -4.96,-6.07l0 -22.2z"/>
   <path class="fil1" d="M744.27 292.02c5.51,0 10.01,-1.47 13.59,-4.41 3.58,-2.94 5.42,-6.79 5.42,-11.66 0,-4.87 -1.74,-8.35 -5.14,-10.47 -1.83,-1.1 -3.4,-1.93 -4.77,-2.39 -1.29,-0.55 -3.49,-1.29 -6.61,-2.3 -6.24,-1.93 -8.72,-3.03 -8.72,-5.6 0,-2.3 2.11,-3.49 6.34,-3.49 4.31,0 8.54,1.47 12.85,4.41l5.14 -9.18c-5.78,-3.95 -11.66,-5.87 -17.44,-5.87 -5.78,0 -10.55,1.47 -14.23,4.31 -3.67,2.85 -5.51,6.61 -5.51,11.2 0,4.5 1.83,7.98 5.6,10.28 1.83,1.19 3.49,2.02 4.87,2.66 1.47,0.64 3.58,1.38 6.24,2.2 2.75,0.83 4.87,1.74 6.24,2.75 4.59,3.12 1.47,7.07 -3.58,7.07 -5.79,0 -11.29,-2.02 -16.43,-5.97l-6.06 8.63c6.34,5.14 14.87,7.8 22.22,7.8z"/>
  </g>
 </g>
</svg>
