<svg xmlns="http://www.w3.org/2000/svg" width="170" height="100" viewBox="220 260 564 340">
<g>
<path d="M 432.14 588.93 C410.68,586.51 386.60,576.99 370.43,564.52 C340.06,541.10 322.40,508.59 319.63,471.00 C318.96,461.93 320.23,466.18 321.99,478.94 C325.39,503.46 338.83,529.62 357.89,548.82 C376.18,567.24 393.65,577.41 418.65,584.20 C430.05,587.30 431.24,587.43 449.80,587.46 C460.42,587.48 467.62,587.82 465.80,588.20 C459.81,589.47 440.65,589.88 432.14,588.93 ZM 437.39 560.91 C429.29,559.56 417.16,555.39 408.72,551.06 C382.91,537.83 364.03,513.22 357.47,484.30 C356.12,478.36 355.05,472.38 355.08,471.00 C355.11,469.62 355.99,472.55 357.03,477.50 C363.52,508.37 381.44,532.99 408.50,548.22 C422.98,556.37 435.86,559.94 454.50,560.96 L 467.50 561.67 L 455.00 561.72 C448.12,561.75 440.20,561.38 437.39,560.91 ZM 422.00 513.00 C422.00,499.44 422.23,497.00 423.50,497.00 C424.33,497.00 425.00,497.64 425.00,498.42 C425.00,499.51 425.89,499.35 428.94,497.68 C432.64,495.65 433.13,495.61 437.10,497.01 C439.42,497.83 442.20,499.70 443.29,501.16 C445.66,504.36 446.01,510.75 444.02,514.47 C441.08,519.95 432.51,521.76 427.63,517.93 L 425.00 515.85 L 425.00 522.43 C425.00,527.60 424.68,529.00 423.50,529.00 C422.23,529.00 422.00,526.56 422.00,513.00 ZM 439.55 514.55 C442.64,511.45 442.80,506.29 439.93,502.63 C438.26,500.51 437.01,500.00 433.50,500.00 C429.99,500.00 428.74,500.51 427.07,502.63 C422.37,508.61 426.13,517.00 433.50,517.00 C435.98,517.00 437.85,516.24 439.55,514.55 ZM 453.00 508.50 C453.00,498.94 453.25,497.00 454.50,497.00 C455.33,497.00 456.00,497.69 456.00,498.53 C456.00,499.76 456.58,499.63 458.93,497.90 C460.54,496.70 462.56,496.00 463.41,496.33 C465.46,497.12 464.33,500.00 461.97,500.00 C460.96,500.00 459.21,501.19 458.07,502.63 C456.40,504.76 456.00,506.70 456.00,512.63 C456.00,518.52 455.70,520.00 454.50,520.00 C453.25,520.00 453.00,518.06 453.00,508.50 ZM 473.22 518.44 C470.16,516.30 468.00,511.80 468.00,507.57 C468.00,500.11 477.49,494.48 484.84,497.58 C488.18,498.98 491.00,503.50 491.00,507.45 L 491.00 510.00 L 481.50 510.00 C471.04,510.00 469.64,511.00 474.63,514.93 C477.52,517.20 481.99,517.61 485.17,515.91 C486.65,515.12 487.52,515.12 488.30,515.90 C491.67,519.27 477.74,521.61 473.22,518.44 ZM 487.28 504.98 C486.56,502.21 482.26,499.00 479.29,499.00 C476.84,499.00 471.00,503.88 471.00,505.92 C471.00,506.61 474.07,507.00 479.41,507.00 C487.35,507.00 487.78,506.89 487.28,504.98 ZM 498.00 508.50 C498.00,497.67 498.12,497.00 500.00,497.00 C501.19,497.00 502.00,497.67 502.00,498.65 C502.00,500.12 502.24,500.10 504.08,498.43 C507.04,495.75 513.23,495.93 516.27,498.79 C518.62,500.99 518.69,501.00 520.40,499.11 C524.21,494.91 533.31,495.98 535.97,500.94 C537.59,503.97 537.31,520.00 535.64,520.00 C534.64,520.00 534.14,517.73 533.75,511.48 C533.46,506.80 532.66,502.30 531.99,501.48 C531.30,500.66 529.10,500.00 527.03,500.00 C521.26,500.00 519.58,502.58 519.15,512.10 C518.88,518.02 518.44,520.00 517.39,520.00 C516.32,520.00 516.00,518.21 516.00,512.22 C516.00,502.72 514.54,500.00 509.44,500.00 C503.63,500.00 502.00,502.62 502.00,512.00 C502.00,519.33 501.83,520.00 500.00,520.00 C498.12,520.00 498.00,519.33 498.00,508.50 ZM 547.00 508.50 C547.00,498.94 547.25,497.00 548.50,497.00 C549.75,497.00 550.00,498.94 550.00,508.50 C550.00,518.06 549.75,520.00 548.50,520.00 C547.25,520.00 547.00,518.06 547.00,508.50 ZM 562.74 518.75 C560.13,516.77 559.00,512.45 559.00,504.43 C559.00,497.67 559.18,497.00 561.00,497.00 C562.84,497.00 563.00,497.67 563.00,505.43 C563.00,515.06 564.09,517.00 569.50,517.00 C574.88,517.00 577.00,513.42 577.00,504.37 C577.00,498.49 577.30,497.00 578.50,497.00 C579.75,497.00 580.00,498.94 580.00,508.50 C580.00,518.06 579.75,520.00 578.50,520.00 C577.67,520.00 577.00,519.30 577.00,518.44 C577.00,517.03 576.79,517.03 574.78,518.44 C572.11,520.31 565.03,520.49 562.74,518.75 ZM 590.00 508.50 C590.00,497.47 590.09,497.00 592.11,497.00 C593.52,497.00 594.03,497.47 593.66,498.43 C593.27,499.46 594.09,499.29 596.59,497.81 C600.66,495.41 605.18,495.88 608.57,499.07 C610.40,500.78 610.84,500.87 611.32,499.61 C612.22,497.27 619.09,495.79 622.88,497.11 C627.45,498.70 629.00,502.45 629.00,511.95 C629.00,519.33 628.83,520.00 627.00,520.00 C625.16,520.00 625.00,519.33 625.00,511.65 C625.00,502.24 623.72,500.00 618.33,500.00 C613.34,500.00 611.56,502.99 611.15,512.10 C610.88,518.02 610.44,520.00 609.39,520.00 C608.32,520.00 608.00,518.21 608.00,512.22 C608.00,502.47 606.59,500.00 601.00,500.00 C595.41,500.00 594.00,502.47 594.00,512.22 C594.00,519.33 593.83,520.00 592.00,520.00 C590.12,520.00 590.00,519.33 590.00,508.50 ZM 546.67 492.33 C546.30,491.97 546.00,490.84 546.00,489.83 C546.00,487.52 549.81,487.33 550.68,489.60 C551.50,491.74 548.27,493.94 546.67,492.33 ZM 397.00 442.00 L 397.00 396.00 L 404.50 396.00 L 412.00 396.00 L 412.00 400.00 C412.00,402.20 412.18,404.00 412.40,404.00 C412.62,404.00 415.09,402.46 417.89,400.57 C427.25,394.28 438.90,393.52 449.83,398.51 C457.26,401.91 462.19,406.84 465.67,414.37 C468.16,419.77 468.50,421.63 468.46,430.00 C468.43,438.07 468.04,440.33 465.85,445.00 C460.60,456.22 450.71,462.97 438.33,463.78 C428.77,464.41 425.07,463.59 418.95,459.46 C416.11,457.56 413.62,456.00 413.40,456.00 C413.18,456.00 413.00,463.20 413.00,472.00 L 413.00 488.00 L 405.00 488.00 L 397.00 488.00 L 397.00 442.00 ZM 443.61 447.36 C452.78,441.14 455.44,430.79 450.57,420.31 C443.61,405.38 421.69,405.47 414.88,420.46 C412.49,425.71 412.49,434.30 414.88,439.50 C418.22,446.76 423.69,449.90 433.11,449.96 C438.64,449.99 440.35,449.57 443.61,447.36 ZM 331.51 462.40 C325.91,460.35 320.45,454.69 318.97,449.39 C316.58,440.84 319.90,432.90 327.84,428.24 C332.18,425.69 333.39,425.48 345.50,425.22 C352.65,425.06 359.51,424.72 360.75,424.45 C365.55,423.41 362.15,413.74 355.79,410.33 C350.47,407.48 340.85,407.94 333.23,411.42 C329.78,413.00 326.82,414.11 326.65,413.90 C325.98,413.04 321.00,403.72 321.00,403.32 C321.00,403.09 324.49,401.24 328.75,399.22 C336.14,395.71 336.99,395.54 347.00,395.52 C359.98,395.50 365.92,397.33 371.84,403.19 C378.28,409.57 379.00,413.28 379.00,440.18 L 379.00 463.00 L 371.50 463.00 L 364.00 463.00 L 364.00 459.33 L 364.00 455.65 L 361.64 457.87 C355.70,463.45 340.59,465.72 331.51,462.40 ZM 352.45 451.89 C354.63,451.29 357.89,449.31 359.70,447.50 C362.59,444.61 363.00,443.55 363.00,439.01 L 363.00 433.82 L 352.07 434.16 C342.85,434.45 340.70,434.83 338.32,436.60 C332.28,441.10 333.05,448.56 339.84,451.38 C344.27,453.22 347.24,453.34 352.45,451.89 ZM 500.00 462.17 C489.93,458.43 482.58,451.93 479.06,443.67 C476.16,436.86 476.20,424.20 479.15,416.32 C482.06,408.55 489.52,401.11 497.53,397.98 C506.24,394.58 518.43,394.66 526.00,398.18 C537.55,403.54 544.06,413.44 544.80,426.75 L 545.25 435.00 L 518.56 435.00 L 491.87 435.00 L 494.69 440.24 C496.73,444.03 498.74,446.17 502.00,447.99 C510.32,452.63 523.96,450.89 530.51,444.35 C532.13,442.72 532.46,442.90 536.52,447.57 C540.59,452.23 540.73,452.60 539.16,454.38 C536.66,457.21 531.09,460.47 525.57,462.34 C519.14,464.51 506.06,464.42 500.00,462.17 ZM 529.70 423.33 C530.87,420.29 525.92,412.83 521.00,410.23 C514.98,407.04 505.98,407.40 500.60,411.04 C497.01,413.47 491.53,422.43 492.59,424.14 C492.88,424.61 501.21,425.00 511.09,425.00 C526.94,425.00 529.14,424.80 529.70,423.33 ZM 649.51 456.50 C647.78,452.65 645.78,448.03 645.05,446.23 L 643.74 442.96 L 621.19 443.23 L 598.64 443.50 L 594.55 453.00 L 590.47 462.50 L 581.73 462.79 C576.93,462.95 572.99,462.72 572.99,462.29 C572.98,461.86 582.09,441.36 593.24,416.74 L 613.50 371.98 L 621.79 372.24 L 630.09 372.50 L 640.13 395.00 C645.66,407.38 654.64,427.47 660.09,439.65 C665.54,451.83 670.00,462.03 670.00,462.32 C670.00,462.62 666.10,463.00 661.33,463.18 L 652.65 463.50 L 649.51 456.50 ZM 637.00 429.01 C637.00,426.91 621.57,391.04 620.98,391.75 C620.45,392.38 607.58,422.64 605.45,428.25 C604.83,429.87 605.97,430.00 620.89,430.00 C630.89,430.00 637.00,429.62 637.00,429.01 ZM 749.00 462.41 C743.55,460.05 739.11,455.12 737.47,449.60 C736.42,446.06 736.00,439.66 736.00,427.32 L 736.00 410.00 L 730.50 410.00 L 725.00 410.00 L 725.00 403.50 L 725.00 397.00 L 730.50 397.00 L 736.00 397.00 L 736.00 388.00 L 736.00 379.00 L 743.96 379.00 L 751.92 379.00 L 752.21 387.75 L 752.50 396.50 L 761.80 396.79 L 771.09 397.08 L 770.80 403.15 L 770.50 409.23 L 761.50 409.53 C756.55,409.69 752.61,410.08 752.75,410.41 C752.89,410.73 753.00,418.83 753.00,428.39 C753.00,444.02 753.19,446.02 754.91,448.14 C756.48,450.08 757.73,450.49 761.85,450.43 C764.61,450.39 767.58,449.76 768.46,449.04 C769.33,448.31 770.20,447.89 770.38,448.11 C771.04,448.89 774.00,458.39 774.00,459.73 C774.00,463.63 756.23,465.54 749.00,462.41 ZM 263.10 450.23 C260.12,443.23 256.00,433.67 253.94,429.00 C245.84,410.64 230.00,373.89 230.00,373.45 C230.00,373.20 233.94,373.00 238.75,373.00 L 247.50 373.00 L 250.70 380.25 C254.79,389.52 260.77,403.17 269.97,424.25 C274.00,433.46 277.61,441.00 278.01,441.00 C278.41,441.00 283.79,429.41 289.98,415.25 C296.16,401.09 302.85,385.79 304.85,381.25 L 308.47 373.00 L 316.24 373.00 C320.96,373.00 324.00,373.41 324.00,374.04 C324.00,375.06 305.87,417.52 292.52,447.75 L 285.79 463.00 L 277.15 462.98 L 268.50 462.95 L 263.10 450.23 ZM 679.00 429.46 L 679.00 395.92 L 686.75 396.21 L 694.50 396.50 L 694.81 400.81 L 695.12 405.12 L 699.02 401.60 C703.19,397.83 712.01,394.64 716.74,395.18 C719.43,395.49 719.51,395.67 719.79,402.61 L 720.08 409.71 L 714.03 410.26 C705.88,411.00 701.08,413.64 698.00,419.08 C695.61,423.31 695.49,424.33 695.17,443.25 L 694.85 463.00 L 686.92 463.00 L 679.00 463.00 L 679.00 429.46 ZM 714.61 387.00 C712.24,368.95 701.59,344.10 689.11,327.50 C671.78,304.45 646.19,286.20 620.00,278.21 C604.93,273.61 597.10,272.51 579.50,272.53 C569.69,272.54 564.19,272.24 566.50,271.83 C574.04,270.48 599.42,270.93 608.14,272.57 C649.64,280.34 684.10,306.46 703.37,344.75 C710.51,358.93 716.57,380.88 715.79,389.75 C715.52,392.91 715.33,392.47 714.61,387.00 ZM 675.47 386.75 C670.72,351.72 637.05,315.33 600.00,305.15 C592.26,303.02 579.99,301.23 569.50,300.69 C565.83,300.50 567.42,300.30 573.62,300.19 C611.01,299.49 646.00,319.83 665.34,353.50 C670.57,362.61 675.78,377.65 676.68,386.20 C677.43,393.43 676.44,393.89 675.47,386.75 Z" fill="rgb(226,219,202)"/>
</g>
</svg>